<svg width="24" height="27" viewBox="0 0 24 27" fill="none" xmlns="http://www.w3.org/2000/svg">
<path d="M11.9811 16.3548H12C14.8654 16.3548 18.1371 12.1946 19.0724 10.9111C20.9714 8.31583 23 4.47743 23 1.48943C23 1.21913 22.7583 1 22.4601 1C22.162 1 21.9202 1.21913 21.9202 1.48943C21.9202 3.81425 20.4842 7.21215 18.1721 10.3715C15.9856 13.3595 13.5117 15.3686 12.0094 15.3771C8.67031 15.2548 2.07975 6.88301 2.07975 1.61179C2.07975 1.34149 1.83804 1.12236 1.53988 1.12236C1.24171 1.12236 1 1.34149 1 1.61179C1 4.11525 2.48466 7.68568 4.87902 10.9294C7.33816 14.2625 9.99301 16.2912 11.9811 16.3548Z" fill="#9A9998" stroke="#9A9998" stroke-width="0.3"/>
<path fill-rule="evenodd" clip-rule="evenodd" d="M9.70557 18.5573C9.70557 17.4084 10.7328 16.4772 12 16.4772C12.6086 16.4772 13.1922 16.6963 13.6225 17.0864C14.0528 17.4765 14.2945 18.0056 14.2945 18.5573C14.2945 19.7061 13.2673 20.6374 12 20.6374C10.7328 20.6374 9.70557 19.7061 9.70557 18.5573ZM10.7853 18.5573C10.7853 19.1654 11.3292 19.6585 12 19.6585C12.6709 19.6585 13.2148 19.1654 13.2148 18.5573C13.2148 17.9491 12.6709 17.456 12 17.456C11.3292 17.456 10.7853 17.9491 10.7853 18.5573Z" fill="#9A9998"/>
<path fill-rule="evenodd" clip-rule="evenodd" d="M10.3129 22.4115C10.3129 21.5668 11.0682 20.8821 12 20.8821C12.9311 20.8834 13.6856 21.5674 13.6871 22.4115C13.6871 23.2563 12.9318 23.941 12 23.941C11.0682 23.941 10.3129 23.2563 10.3129 22.4115ZM11.3926 22.4115C11.3926 22.7156 11.6645 22.9622 12 22.9622C12.3351 22.9615 12.6066 22.7154 12.6073 22.4115C12.6073 22.1075 12.3354 21.8609 12 21.8609C11.6645 21.8609 11.3926 22.1075 11.3926 22.4115Z" fill="#9A9998"/>
<path fill-rule="evenodd" clip-rule="evenodd" d="M10.5154 25.6541C10.5154 24.9107 11.1801 24.3081 12 24.3081C12.82 24.3081 13.4847 24.9107 13.4847 25.6541C13.4847 26.3974 12.82 27 12 27C11.1801 27 10.5154 26.3974 10.5154 25.6541ZM11.5951 25.6541C11.5951 25.8568 11.7764 26.0211 12 26.0211C12.2237 26.0211 12.405 25.8568 12.405 25.6541C12.405 25.4513 12.2237 25.287 12 25.287C11.7764 25.287 11.5951 25.4513 11.5951 25.6541Z" fill="#9A9998"/>
<path fill-rule="evenodd" clip-rule="evenodd" d="M4.77917 16.3548C4.77917 15.2736 5.74602 14.397 6.93868 14.397C8.13135 14.397 9.09819 15.2736 9.09819 16.3548C9.09819 17.436 8.13135 18.3125 6.93868 18.3125C5.74602 18.3125 4.77917 17.436 4.77917 16.3548ZM5.85893 16.3548C5.85893 16.8954 6.34235 17.3337 6.93868 17.3337C7.53502 17.3337 8.01844 16.8954 8.01844 16.3548C8.01844 15.8142 7.53502 15.3759 6.93868 15.3759C6.34235 15.3759 5.85893 15.8142 5.85893 16.3548Z" fill="#9A9998"/>
<path fill-rule="evenodd" clip-rule="evenodd" d="M5.46103 19.3581C5.70858 18.8163 6.29178 18.463 6.93867 18.463C7.82168 18.4637 8.53731 19.1125 8.53805 19.913C8.53805 20.4994 8.14838 21.0281 7.55073 21.2526C6.95308 21.477 6.26515 21.3529 5.80773 20.9382C5.35031 20.5236 5.21347 19.8999 5.46103 19.3581ZM6.45846 20.0917C6.53881 20.2679 6.72837 20.3828 6.93867 20.3828C7.22513 20.3828 7.45755 20.1727 7.4583 19.913C7.45884 19.7223 7.33259 19.5502 7.13846 19.4769C6.94433 19.4036 6.7206 19.4436 6.57171 19.5782C6.42282 19.7128 6.37811 19.9156 6.45846 20.0917Z" fill="#9A9998"/>
<path fill-rule="evenodd" clip-rule="evenodd" d="M5.53224 22.9091C5.53025 22.2029 6.15962 21.6287 6.93861 21.626C7.31386 21.625 7.67414 21.7594 7.93999 21.9995C8.20584 22.2396 8.35543 22.5657 8.35579 22.9059C8.35578 23.6121 7.7248 24.1848 6.9458 24.1857C6.1668 24.1866 5.53422 23.6153 5.53224 22.9091ZM6.61201 22.9027C6.61003 23.0683 6.75597 23.2042 6.93861 23.2069C7.0276 23.2082 7.11345 23.1771 7.17689 23.1205C7.24033 23.0639 7.27605 22.9866 7.27604 22.9059C7.27601 22.7403 7.12844 22.6058 6.94578 22.6049C6.76312 22.604 6.61398 22.7371 6.61201 22.9027Z" fill="#9A9998"/>
<path fill-rule="evenodd" clip-rule="evenodd" d="M15.1718 16.2324C15.1718 15.1512 16.1386 14.2747 17.3313 14.2747C18.5239 14.2747 19.4908 15.1512 19.4908 16.2324C19.4908 17.3137 18.5239 18.1902 17.3313 18.1902C16.1386 18.1902 15.1718 17.3137 15.1718 16.2324ZM16.2515 16.2324C16.2515 16.773 16.7349 17.2113 17.3313 17.2113C17.9276 17.2113 18.411 16.773 18.411 16.2324C18.411 15.6918 17.9276 15.2536 17.3313 15.2536C16.7349 15.2536 16.2515 15.6918 16.2515 16.2324Z" fill="#9A9998"/>
<path fill-rule="evenodd" clip-rule="evenodd" d="M15.7319 19.7906C15.7319 18.9898 16.448 18.3407 17.3313 18.3407C18.2143 18.3413 18.93 18.9901 18.9307 19.7906C18.9307 20.5914 18.2146 21.2406 17.3313 21.2406C16.448 21.2406 15.7319 20.5914 15.7319 19.7906ZM16.8511 19.9694C16.9315 20.1456 17.121 20.2605 17.3313 20.2605C17.6178 20.2605 17.8502 20.0503 17.851 19.7906C17.8515 19.6 17.7252 19.4278 17.5311 19.3545C17.337 19.2812 17.1133 19.3212 16.9644 19.4559C16.8155 19.5905 16.7708 19.7932 16.8511 19.9694Z" fill="#9A9998"/>
<path fill-rule="evenodd" clip-rule="evenodd" d="M15.9249 22.7868C15.923 22.0806 16.5523 21.5063 17.3313 21.5036C17.7066 21.5027 18.0668 21.637 18.3327 21.8771C18.5985 22.1172 18.7481 22.4433 18.7485 22.7835C18.7485 23.4897 18.1175 24.0625 17.3385 24.0634C16.5595 24.0643 15.9269 23.493 15.9249 22.7868ZM16.9993 22.7835C16.9993 22.9498 17.1479 23.0845 17.3313 23.0845C17.4194 23.0845 17.5038 23.0528 17.5661 22.9964C17.6284 22.9399 17.6633 22.8633 17.6633 22.7835C17.6633 22.6173 17.5147 22.4825 17.3313 22.4825C17.1479 22.4825 16.9993 22.6173 16.9993 22.7835Z" fill="#9A9998"/>
</svg>
