<svg width="24" height="26" viewBox="0 0 24 26" fill="none" xmlns="http://www.w3.org/2000/svg">
<path fill-rule="evenodd" clip-rule="evenodd" d="M6.64751 25H19.5441C21.4828 25 23 23.5103 23 21.6069V21.6069C23 20.2 22.0728 18.8759 20.6398 18.3793L8.50192 14.2414C4.7931 13.0828 1 15.731 1 19.4552V19.4552C1 22.5172 3.52874 25 6.64751 25Z" stroke="white" stroke-width="1.6" stroke-linecap="round" stroke-linejoin="round"/>
<ellipse cx="10.272" cy="20.0345" rx="2.52874" ry="2.48276" stroke="white" stroke-width="1.6" stroke-linecap="round" stroke-linejoin="round"/>
<path d="M8.58619 7.62069H5.88887C4.37163 7.62069 2.93868 7.04138 1.8429 5.96552V5.96552" stroke="white" stroke-width="1.6" stroke-linecap="round" stroke-linejoin="round"/>
<path d="M6.0575 7.6207L9.42914 14.2414" stroke="white" stroke-width="1.6" stroke-linecap="round" stroke-linejoin="round"/>
<path d="M20.387 3.48276L17.0154 16.7241" stroke="white" stroke-width="1.6" stroke-linecap="round" stroke-linejoin="round"/>
<path d="M16.1724 4.31034V4.31034C18.7854 4.31034 21.3141 3.06897 22.9157 1V1" stroke="white" stroke-width="1.6" stroke-linecap="round" stroke-linejoin="round"/>
<path d="M10.272 20.0345H15.3294" stroke="white" stroke-width="1.6" stroke-linecap="round" stroke-linejoin="round"/>
</svg>
