<svg width="20" height="26" viewBox="0 0 20 26" fill="none" xmlns="http://www.w3.org/2000/svg">
<path fill-rule="evenodd" clip-rule="evenodd" d="M17.8294 14.0397C17.8445 14.0416 17.8595 14.0435 17.875 14.0435C18.496 14.0435 19 13.576 19 13C19 12.424 18.496 11.9565 17.875 11.9565C17.8595 11.9565 17.8445 11.9584 17.8294 11.9603L17.8294 11.9603C17.8183 11.9618 17.8071 11.9632 17.7957 11.9638C17.4902 9.8367 16.2646 7.98139 14.5 6.75009V3.08696C14.5 1.93443 13.4926 1 12.25 1H6.625C5.38244 1 4.375 1.93443 4.375 3.08696V6.75009C2.32919 8.17757 1 10.4419 1 13C1 15.5576 2.32919 17.8219 4.375 19.2499V22.913C4.375 24.0656 5.38244 25 6.625 25H12.25C13.4926 25 14.5 24.0656 14.5 22.913V19.2499C16.264 18.0186 17.4902 16.1633 17.7957 14.0362C17.8071 14.0368 17.8183 14.0382 17.8294 14.0397L17.8294 14.0397ZM6.625 23.9565C6.004 23.9565 5.5 23.489 5.5 22.913V19.9193C6.67619 20.4958 8.01494 20.8261 9.4375 20.8261C10.8601 20.8261 12.1988 20.4958 13.375 19.9193V22.913C13.375 23.489 12.871 23.9565 12.25 23.9565H6.625ZM13.375 3.08696C13.375 2.51096 12.871 2.04348 12.25 2.04348H6.625C6.004 2.04348 5.5 2.51096 5.5 3.08696V6.0807C6.67619 5.50365 8.01494 5.17391 9.4375 5.17391C10.8601 5.17391 12.1988 5.50365 13.375 6.0807V3.08696ZM2.125 13C2.125 9.25391 5.39875 6.21739 9.4375 6.21739C13.4762 6.21739 16.75 9.25391 16.75 13C16.75 16.7461 13.4762 19.7826 9.4375 19.7826C5.39875 19.7826 2.125 16.7461 2.125 13ZM10 14.4692V17.6957C10 17.9842 9.74856 18.2174 9.4375 18.2174C9.12644 18.2174 8.875 17.9842 8.875 17.6957V14.4692C8.22137 14.2537 7.75 13.6803 7.75 13C7.75 12.7543 7.81638 12.5252 7.9255 12.3176L6.22337 10.7388C6.00906 10.54 6.00906 10.217 6.22337 10.0183C6.43825 9.81948 6.78587 9.81948 7.00019 10.0183L8.70231 11.597C8.92562 11.4963 9.17256 11.4348 9.4375 11.4348C10.3696 11.4348 11.125 12.136 11.125 13C11.125 13.6809 10.6542 14.2537 10 14.4692ZM8.875 13C8.875 12.7115 9.12644 12.4783 9.4375 12.4783C9.74856 12.4783 10 12.7115 10 13C10 13.2885 9.74856 13.5217 9.4375 13.5217C9.12644 13.5217 8.875 13.2885 8.875 13Z" fill="#9A9998"/>
<path d="M17.8294 14.0397L17.8546 13.8413L17.8542 13.8412L17.8294 14.0397ZM17.8294 11.9603L17.8542 12.1588L17.8546 12.1587L17.8294 11.9603ZM17.8294 11.9603L17.8046 11.7619L17.8042 11.7619L17.8294 11.9603ZM17.7957 11.9638L17.5977 11.9923L17.6238 12.1741L17.8073 12.1635L17.7957 11.9638ZM14.5 6.75009H14.3V6.85441L14.3856 6.9141L14.5 6.75009ZM4.375 6.75009L4.48945 6.91411L4.575 6.85441V6.75009H4.375ZM4.375 19.2499H4.575V19.1456L4.48947 19.0859L4.375 19.2499ZM14.5 19.2499L14.3855 19.0859L14.3 19.1456V19.2499H14.5ZM17.7957 14.0362L17.8073 13.8365L17.6238 13.8259L17.5977 14.0077L17.7957 14.0362ZM17.8294 14.0397L17.8042 14.2381L17.8046 14.2381L17.8294 14.0397ZM5.5 19.9193L5.58803 19.7397L5.3 19.5985V19.9193H5.5ZM13.375 19.9193H13.575V19.5985L13.287 19.7397L13.375 19.9193ZM5.5 6.0807H5.3V6.40159L5.58809 6.26025L5.5 6.0807ZM13.375 6.0807L13.2869 6.26025L13.575 6.40159V6.0807H13.375ZM10 14.4692L9.93743 14.2793L9.8 14.3245V14.4692H10ZM8.875 14.4692H9.075V14.3246L8.93762 14.2793L8.875 14.4692ZM7.9255 12.3176L8.10254 12.4106L8.17377 12.2751L8.06151 12.1709L7.9255 12.3176ZM6.22337 10.7388L6.08737 10.8854L6.22337 10.7388ZM6.22337 10.0183L6.08756 9.87145L6.08737 9.87163L6.22337 10.0183ZM7.00019 10.0183L6.86418 10.1649L7.00019 10.0183ZM8.70231 11.597L8.5663 11.7437L8.66358 11.8339L8.78453 11.7794L8.70231 11.597ZM17.875 13.8435C17.8753 13.8435 17.8742 13.8435 17.8708 13.8432C17.867 13.8428 17.8626 13.8423 17.8546 13.8413L17.8042 14.2381C17.8174 14.2397 17.8448 14.2435 17.875 14.2435V13.8435ZM18.8 13C18.8 13.4516 18.4 13.8435 17.875 13.8435V14.2435C18.592 14.2435 19.2 13.7004 19.2 13H18.8ZM17.875 12.1565C18.4 12.1565 18.8 12.5484 18.8 13H19.2C19.2 12.2996 18.592 11.7565 17.875 11.7565V12.1565ZM17.8546 12.1587C17.8626 12.1577 17.867 12.1572 17.8708 12.1568C17.8742 12.1565 17.8753 12.1565 17.875 12.1565V11.7565C17.8448 11.7565 17.8174 11.7603 17.8042 11.7619L17.8546 12.1587ZM17.8542 12.1588L17.8542 12.1588L17.8046 11.7619L17.8046 11.7619L17.8542 12.1588ZM17.8073 12.1635C17.8266 12.1624 17.8445 12.16 17.8545 12.1588L17.8042 11.7619C17.7921 11.7635 17.7876 11.764 17.7841 11.7642L17.8073 12.1635ZM14.3856 6.9141C16.1088 8.11659 17.3008 9.92471 17.5977 11.9923L17.9937 11.9354C17.6797 9.74868 16.4203 7.84619 14.6144 6.58607L14.3856 6.9141ZM14.3 3.08696V6.75009H14.7V3.08696H14.3ZM12.25 1.2C13.3965 1.2 14.3 2.05879 14.3 3.08696H14.7C14.7 1.81008 13.5886 0.8 12.25 0.8V1.2ZM6.625 1.2H12.25V0.8H6.625V1.2ZM4.575 3.08696C4.575 2.05879 5.47846 1.2 6.625 1.2V0.8C5.28641 0.8 4.175 1.81008 4.175 3.08696H4.575ZM4.575 6.75009V3.08696H4.175V6.75009H4.575ZM1.2 13C1.2 10.5143 2.49119 8.3084 4.48945 6.91411L4.26055 6.58607C2.16718 8.04673 0.8 10.3695 0.8 13H1.2ZM4.48947 19.0859C2.49118 17.6911 1.2 15.4851 1.2 13H0.8C0.8 15.63 2.16719 17.9527 4.26053 19.4139L4.48947 19.0859ZM4.575 22.913V19.2499H4.175V22.913H4.575ZM6.625 24.8C5.47846 24.8 4.575 23.9412 4.575 22.913H4.175C4.175 24.1899 5.28641 25.2 6.625 25.2V24.8ZM12.25 24.8H6.625V25.2H12.25V24.8ZM14.3 22.913C14.3 23.9412 13.3965 24.8 12.25 24.8V25.2C13.5886 25.2 14.7 24.1899 14.7 22.913H14.3ZM14.3 19.2499V22.913H14.7V19.2499H14.3ZM17.5977 14.0077C17.3008 16.0753 16.1083 17.8834 14.3855 19.0859L14.6145 19.4139C16.4197 18.1538 17.6797 16.2513 17.9937 14.0646L17.5977 14.0077ZM17.8545 13.8412C17.8445 13.84 17.8266 13.8376 17.8073 13.8365L17.7841 14.2358C17.7876 14.236 17.7921 14.2365 17.8042 14.2381L17.8545 13.8412ZM17.8542 13.8412L17.8542 13.8412L17.8046 14.2381L17.8046 14.2381L17.8542 13.8412ZM5.3 22.913C5.3 23.6134 5.90798 24.1565 6.625 24.1565V23.7565C6.10002 23.7565 5.7 23.3647 5.7 22.913H5.3ZM5.3 19.9193V22.913H5.7V19.9193H5.3ZM9.4375 20.6261C8.04611 20.6261 6.73741 20.3031 5.58803 19.7397L5.41197 20.0989C6.61496 20.6885 7.98376 21.0261 9.4375 21.0261V20.6261ZM13.287 19.7397C12.1376 20.3031 10.8289 20.6261 9.4375 20.6261V21.0261C10.8912 21.0261 12.26 20.6885 13.463 20.0989L13.287 19.7397ZM13.575 22.913V19.9193H13.175V22.913H13.575ZM12.25 24.1565C12.967 24.1565 13.575 23.6134 13.575 22.913H13.175C13.175 23.3647 12.775 23.7565 12.25 23.7565V24.1565ZM6.625 24.1565H12.25V23.7565H6.625V24.1565ZM12.25 2.24348C12.775 2.24348 13.175 2.63531 13.175 3.08696H13.575C13.575 2.3866 12.967 1.84348 12.25 1.84348V2.24348ZM6.625 2.24348H12.25V1.84348H6.625V2.24348ZM5.7 3.08696C5.7 2.63531 6.10002 2.24348 6.625 2.24348V1.84348C5.90798 1.84348 5.3 2.3866 5.3 3.08696H5.7ZM5.7 6.0807V3.08696H5.3V6.0807H5.7ZM9.4375 4.97391C7.98381 4.97391 6.61498 5.31091 5.41191 5.90114L5.58809 6.26025C6.73739 5.6964 8.04606 5.37391 9.4375 5.37391V4.97391ZM13.4631 5.90114C12.26 5.31091 10.8912 4.97391 9.4375 4.97391V5.37391C10.8289 5.37391 12.1376 5.6964 13.2869 6.26025L13.4631 5.90114ZM13.175 3.08696V6.0807H13.575V3.08696H13.175ZM9.4375 6.01739C5.30273 6.01739 1.925 9.12955 1.925 13H2.325C2.325 9.37827 5.49477 6.41739 9.4375 6.41739V6.01739ZM16.95 13C16.95 9.12955 13.5723 6.01739 9.4375 6.01739V6.41739C13.3802 6.41739 16.55 9.37827 16.55 13H16.95ZM9.4375 19.9826C13.5723 19.9826 16.95 16.8704 16.95 13H16.55C16.55 16.6217 13.3802 19.5826 9.4375 19.5826V19.9826ZM1.925 13C1.925 16.8704 5.30273 19.9826 9.4375 19.9826V19.5826C5.49477 19.5826 2.325 16.6217 2.325 13H1.925ZM10.2 17.6957V14.4692H9.8V17.6957H10.2ZM9.4375 18.4174C9.84459 18.4174 10.2 18.1085 10.2 17.6957H9.8C9.8 17.8598 9.65254 18.0174 9.4375 18.0174V18.4174ZM8.675 17.6957C8.675 18.1085 9.03041 18.4174 9.4375 18.4174V18.0174C9.22246 18.0174 9.075 17.8598 9.075 17.6957H8.675ZM8.675 14.4692V17.6957H9.075V14.4692H8.675ZM7.55 13C7.55 13.7786 8.08869 14.4206 8.81238 14.6592L8.93762 14.2793C8.35406 14.0869 7.95 13.5821 7.95 13H7.55ZM7.74846 12.2245C7.62656 12.4565 7.55 12.7172 7.55 13H7.95C7.95 12.7913 8.00619 12.594 8.10254 12.4106L7.74846 12.2245ZM6.08737 10.8854L7.78949 12.4642L8.06151 12.1709L6.35938 10.5921L6.08737 10.8854ZM6.08737 9.87163C5.78773 10.1495 5.78773 10.6075 6.08737 10.8854L6.35938 10.5921C6.23039 10.4725 6.23039 10.2845 6.35938 10.1649L6.08737 9.87163ZM7.1362 9.87163C6.84507 9.6016 6.37899 9.60184 6.08756 9.87145L6.35919 10.1651C6.49751 10.0371 6.72668 10.0374 6.86418 10.1649L7.1362 9.87163ZM8.83832 11.4504L7.1362 9.87163L6.86418 10.1649L8.5663 11.7437L8.83832 11.4504ZM9.4375 11.2348C9.14097 11.2348 8.86612 11.3038 8.6201 11.4147L8.78453 11.7794C8.98513 11.6889 9.20416 11.6348 9.4375 11.6348V11.2348ZM11.325 13C11.325 12.0117 10.4656 11.2348 9.4375 11.2348V11.6348C10.2735 11.6348 10.925 12.2603 10.925 13H11.325ZM10.0626 14.6592C10.7869 14.4206 11.325 13.7791 11.325 13H10.925C10.925 13.5826 10.5215 14.0869 9.93743 14.2793L10.0626 14.6592ZM9.4375 12.2783C9.03041 12.2783 8.675 12.5871 8.675 13H9.075C9.075 12.8358 9.22246 12.6783 9.4375 12.6783V12.2783ZM10.2 13C10.2 12.5871 9.84459 12.2783 9.4375 12.2783V12.6783C9.65254 12.6783 9.8 12.8358 9.8 13H10.2ZM9.4375 13.7217C9.84459 13.7217 10.2 13.4129 10.2 13H9.8C9.8 13.1642 9.65254 13.3217 9.4375 13.3217V13.7217ZM8.675 13C8.675 13.4129 9.03041 13.7217 9.4375 13.7217V13.3217C9.22246 13.3217 9.075 13.1642 9.075 13H8.675Z" fill="#9A9998"/>
</svg>
